<?xml version="1.0" encoding="UTF-8"?>
<svg xmlns="http://www.w3.org/2000/svg" xmlns:xlink="http://www.w3.org/1999/xlink" viewBox="0 0 1800 950" width="1800" height="950" role="img">
  <title>Bars. 70 % panela — pack Fear5 system</title>
  <desc>Wrap 180×95 mm · sistema Fear5. Foto Commons = referencia, no packshot de fábrica.</desc>
  <defs>
    <clipPath id="hero-soft"><circle cx="1368" cy="428" r="300"/></clipPath>
    <style type="text/css"><![CDATA[
      @import url('https://fonts.googleapis.com/css2?family=Bodoni+Moda:ital,wght@1,500;1,900&display=swap');
      .serif { font-family: 'Bodoni Moda', Didot, Georgia, serif; font-style: italic; fill: #FFFFFF; }
      .sans { font-family: Inter, Outfit, Helvetica, Arial, sans-serif; fill: #FFFFFF; }
    ]]></style>
  </defs>
  <rect id="BG" width="1800" height="950" fill="#C17A2A"/>
  <g id="MOTIF_SWIRLS" transform="scale(2.25 1.9)" fill="none" stroke="#2A140C" stroke-linecap="round" stroke-linejoin="round">
      <path stroke-width="38" d="M-20 420 C 80 380, 140 260, 240 250 C 360 236, 400 360, 520 340 C 640 320, 700 180, 840 160"/>
      <path stroke-width="28" d="M-10 200 C 120 160, 180 80, 300 90 C 430 102, 470 210, 600 190"/>
      <path stroke-width="18" d="M 80 480 C 200 450, 260 390, 380 400"/>
      <path stroke-width="34" d="M-40 90 C 90 40, 220 130, 350 70 C 500 10, 580 170, 860 50"/>
      <path stroke-width="46" d="M 160 520 C 300 430, 470 500, 640 360 C 780 250, 840 310, 920 210"/>
  </g>
  <g id="MOTIF_HALO" fill="none" stroke="#F7F1EE" stroke-width="2" opacity="0.72">
    <circle cx="1368" cy="428" r="262"/>
    <circle cx="1368" cy="428" r="290"/>
    <circle cx="1368" cy="428" r="318"/>
    <circle cx="1368" cy="428" r="346"/>
    <circle cx="1368" cy="428" r="374"/>
    <circle cx="1368" cy="428" r="402"/>
  </g>
  <image id="HERO" xlink:href="70-panela-hero-cutout.png" x="1188" y="148" width="360" height="560" preserveAspectRatio="xMidYMid meet" clip-path="url(#hero-soft)"/>
  <g id="LOCKUP_CB" transform="translate(156,44) scale(1.2)" fill="none" stroke="#FFFFFF" stroke-linecap="round" stroke-linejoin="round">
    <circle cx="40" cy="40" r="36.2" stroke-width="1.7"/>
    <path stroke-width="3.35" d="M57.2 21.8C46.4 12.6 26.8 13.4 19.6 28.4C13.2 42.2 16.8 59.6 31.2 65.6C40.4 69.4 52.8 66.8 58.6 58.2"/>
    <path stroke-width="3.2" d="M33.8 18.8C33.4 33.2 33.8 47.6 34.8 62.4M33.9 21.4C50.6 16.2 64.4 22.6 62.2 33.2C60.4 41.4 47.6 43.8 34.2 40.2C52.8 38.6 66.2 46.4 62.8 57.2C59.6 67.4 45.2 69.2 34.6 60.4"/>
  </g>
  <text class="serif" x="204" y="186" text-anchor="middle" font-size="17" font-weight="500" letter-spacing="7">CHOCOLATE</text>
  <text class="serif" x="204" y="258" text-anchor="middle">
    <tspan font-size="72" font-weight="900">B</tspan><tspan font-size="48" font-weight="500">enevol</tspan><tspan font-size="72" font-weight="900">O</tspan>
  </text>
  <text class="serif" x="204" y="286" text-anchor="middle" font-size="15" font-weight="500" letter-spacing="3">70 % CACAO</text>
  <text class="serif" x="204" y="308" text-anchor="middle" font-size="15" font-weight="500" letter-spacing="3">ENDULZADO CON PANELA</text>
  <text x="568" y="536" text-anchor="middle" fill="#2A140C" opacity="0.45" font-family="Bodoni Moda, Didot, serif" font-size="228" font-style="italic" font-weight="900">Bars.</text>
  <text x="560" y="528" text-anchor="middle" fill="#FFFFFF" font-family="Bodoni Moda, Didot, serif" font-size="228" font-style="italic" font-weight="900">Bars.</text>
  <text class="sans" x="88" y="888" font-size="20">Chocolatina dark. Neto 80gr.  ·  preventa</text>
  <g id="SEAL_ORIGEN" fill="none" stroke="#FFFFFF">
    <circle cx="1648" cy="792" r="54" stroke-width="2"/>
    <circle cx="1648" cy="792" r="48" stroke-width="1"/>
  </g>
  <text class="sans" x="1648" y="772" text-anchor="middle" font-size="9">CACAO COLOMBIANO</text>
  <text class="sans" x="1648" y="784" text-anchor="middle" font-size="9">DE ORIGEN</text>
  <text class="serif" x="1648" y="808" text-anchor="middle" font-size="28" font-weight="900">70</text>
  <text class="sans" x="1648" y="828" text-anchor="middle" font-size="9">panela</text>
  <text class="serif" x="1648" y="888" text-anchor="middle" font-size="20">ChocolateBenevolo.co</text>
</svg>
