<?xml version="1.0" encoding="UTF-8"?>
<svg xmlns="http://www.w3.org/2000/svg" width="70mm" height="120mm" viewBox="0 0 700 1200"
  role="img" aria-label="Brew. CACAO &amp; MARACUYÁ">
  <title>Brew. · CACAO &amp; MARACUYÁ</title>
  <desc>Brew. Benevolo · Waterloo structure + franja naranja CB. No copia IP Waterloo.</desc>
  <defs>
    <linearGradient id="wash" x1="0" y1="0" x2="0" y2="1">
      <stop offset="0%" stop-color="#F5C518"/>
      <stop offset="32%" stop-color="#FFE066"/>
      <stop offset="55%" stop-color="#FFF3B0"/>
      <stop offset="72%" stop-color="#F7F1EE"/>
      <stop offset="100%" stop-color="#FFFFFF"/>
    </linearGradient>
  </defs>

  <g id="ARTWORK">
    <rect width="700" height="1200" fill="url(#wash)"/>

    <!-- CB lockup -->
    <g id="LOCKUP_CB" transform="translate(36,28)">
      <circle cx="20" cy="20" r="18" fill="#F05A28"/>
      <text x="20" y="26" text-anchor="middle" font-family="Georgia, serif" font-size="15" font-weight="700" fill="#FFFFFF">CB</text>
      <text x="50" y="16" font-family="Georgia, serif" font-size="13" font-weight="700" fill="#FFFFFF" letter-spacing="1.4">CHOCOLATE</text>
      <text x="50" y="34" font-family="Georgia, serif" font-size="13" font-weight="700" fill="#FFFFFF" letter-spacing="1.4">BENEVOLO</text>
    </g>

    <!-- Brew. wordmark -->
    <g id="WORDMARK">
      <text x="40" y="128" font-family="Bodoni Moda, Didot, Georgia, serif" font-size="92" font-style="italic" font-weight="900" fill="#C43A18" opacity="0.45">Brew.</text>
      <text x="34" y="122" font-family="Bodoni Moda, Didot, Georgia, serif" font-size="92" font-style="italic" font-weight="900" fill="#FFFFFF">Brew.</text>
    </g>
    <text x="40" y="158" font-family="Outfit, Helvetica, Arial, sans-serif" font-size="14" fill="#FFFFFF" letter-spacing="3.5">SPARKLING CACAO</text>


    <g id="FRUIT" transform="translate(75,185) scale(1.05)">
      
      <g transform="translate(390,70) rotate(-12) scale(1.25)">
        <path d="M0 0 Q28 -18 52 0 Q28 20 0 0 Z" fill="#3D7A2C"/>
        <path d="M0 0 Q28 -10 48 0" fill="none" stroke="#1E5014" stroke-width="1.5"/>
        <path d="M12 -4 Q22 -12 30 -2" fill="none" stroke="#5FAF44" stroke-width="1" opacity="0.7"/>
      </g>
      <ellipse cx="205" cy="155" rx="108" ry="128" fill="#F5C518"/>
      <ellipse cx="178" cy="120" rx="42" ry="58" fill="#FFE066" opacity="0.42"/>
      <ellipse cx="205" cy="38" rx="13" ry="9" fill="#B89000"/>
      <g transform="translate(55,220)">
        <ellipse cx="0" cy="0" rx="92" ry="104" fill="#F5C518"/>
        <ellipse cx="0" cy="0" rx="74" ry="84" fill="#B89000"/>
        <ellipse cx="0" cy="0" rx="24" ry="28" fill="#FFF3B0" opacity="0.88"/>
        <g fill="#FFF3B0">
          <ellipse cx="-30" cy="-22" rx="8" ry="5.5" transform="rotate(-28 -30 -22)"/>
          <ellipse cx="12" cy="-38" rx="8" ry="5.5" transform="rotate(18 12 -38)"/>
          <ellipse cx="36" cy="-12" rx="8" ry="5.5" transform="rotate(42 36 -12)"/>
          <ellipse cx="28" cy="28" rx="8" ry="5.5" transform="rotate(-8 28 28)"/>
          <ellipse cx="-18" cy="34" rx="8" ry="5.5" transform="rotate(16 -18 34)"/>
          <ellipse cx="-38" cy="6" rx="8" ry="5.5" transform="rotate(-38 -38 6)"/>
          <ellipse cx="6" cy="6" rx="7" ry="4.5"/>
          <ellipse cx="-6" cy="-16" rx="7" ry="4.5" transform="rotate(48 -6 -16)"/>
          <ellipse cx="20" cy="-22" rx="6.5" ry="4" transform="rotate(-15 20 -22)"/>
        </g>
        <g fill="#3D2314">
          <circle cx="-30" cy="-22" r="2.4"/><circle cx="12" cy="-38" r="2.2"/><circle cx="36" cy="-12" r="2.4"/>
          <circle cx="28" cy="28" r="2.2"/><circle cx="-18" cy="34" r="2.4"/><circle cx="-38" cy="6" r="2.2"/>
          <circle cx="6" cy="6" r="2"/><circle cx="-6" cy="-16" r="2"/><circle cx="20" cy="-22" r="1.8"/>
        </g>
      </g>
      
      <g transform="translate(445,265) scale(0.85)">
        <ellipse cx="0" cy="8" rx="34" ry="48" fill="#F05A28"/>
        <ellipse cx="-10" cy="0" rx="14" ry="34" fill="#FF8A55" opacity="0.35"/>
        <path d="M0 -38 Q-28 -10 -30 10 Q-28 34 0 52" fill="none" stroke="#3D2314" stroke-width="2.2" opacity="0.75"/>
        <path d="M0 -38 Q-14 -8 -14 12 Q-12 36 0 52" fill="none" stroke="#3D2314" stroke-width="1.6" opacity="0.55"/>
        <path d="M0 -38 Q14 -8 14 12 Q12 36 0 52" fill="none" stroke="#3D2314" stroke-width="1.6" opacity="0.55"/>
        <path d="M0 -38 Q28 -10 30 10 Q28 34 0 52" fill="none" stroke="#3D2314" stroke-width="2.2" opacity="0.75"/>
        <rect x="-5" y="-52" width="10" height="16" rx="4" fill="#154010"/>
        <path d="M0 -48 Q22 -62 28 -48 Q14 -40 0 -48 Z" fill="#3D7A2C"/>
        <path d="M0 -48 Q-20 -64 -26 -50 Q-12 -40 0 -48 Z" fill="#4E8C38"/>
        <ellipse cx="-12" cy="-8" rx="8" ry="5" fill="#FFFFFF" opacity="0.28"/>
      </g>
      <ellipse cx="240" cy="380" rx="190" ry="16" fill="#15243F" opacity="0.07"/>
    </g>

    <!-- Flavor block on cream zone -->
    <text x="40" y="780" font-family="Outfit, Helvetica, Arial, sans-serif" font-size="62" font-weight="900" fill="#15243F" letter-spacing="0.5">CACAO</text>
    <text x="40" y="848" font-family="Outfit, Helvetica, Arial, sans-serif" font-size="62" font-weight="900" fill="#15243F" letter-spacing="0.5">&amp; MARACUYÁ</text>
    <rect x="40" y="868" width="120" height="8" rx="4" fill="#F05A28"/>
    <text x="40" y="910" font-family="Georgia, serif" font-size="20" font-style="italic" fill="#15243F">Ácido, efervescente, con punta de cacao.</text>


    <g id="NUTRITION" transform="translate(40,940)">
      <text x="0" y="0" font-family="Outfit, Helvetica, Arial, sans-serif" font-size="28" font-weight="900" fill="#15243F">0</text>
      <text x="28" y="0" font-family="Outfit, Helvetica, Arial, sans-serif" font-size="14" font-weight="700" fill="#15243F" letter-spacing="1.5">CAL</text>
      <circle cx="95" cy="-6" r="3" fill="#F05A28"/>
      <text x="115" y="0" font-family="Outfit, Helvetica, Arial, sans-serif" font-size="28" font-weight="900" fill="#15243F">0</text>
      <text x="143" y="0" font-family="Outfit, Helvetica, Arial, sans-serif" font-size="14" font-weight="700" fill="#15243F" letter-spacing="1.5">AZÚCAR</text>
      <circle cx="250" cy="-6" r="3" fill="#F05A28"/>
      <text x="270" y="0" font-family="Outfit, Helvetica, Arial, sans-serif" font-size="28" font-weight="900" fill="#15243F">0</text>
      <text x="298" y="0" font-family="Outfit, Helvetica, Arial, sans-serif" font-size="14" font-weight="700" fill="#15243F" letter-spacing="1.5">SODIO</text>
    </g>

    <!-- FRANJA NARANJA BENEVOLO (locked abajo) -->
    <g id="ORANGE_BAND">
      <rect x="0" y="1082" width="700" height="118" fill="#F05A28"/>
      <rect x="0" y="1082" width="700" height="6" fill="#C43A18" opacity="0.35"/>
      <text x="350" y="1130" text-anchor="middle" font-family="Outfit, Helvetica, Arial, sans-serif" font-size="22" font-weight="800" fill="#FFFFFF" letter-spacing="2">355 ml · 12 FL OZ</text>
      <text x="350" y="1164" text-anchor="middle" font-family="Outfit, Helvetica, Arial, sans-serif" font-size="16" font-weight="700" fill="#FFFFFF" letter-spacing="1.5">chocolatebenevolo.co · FEAR 5</text>
    </g>
  </g>

  <g id="DIELINE_CUT" fill="none" stroke="#FF00FF" stroke-width="1.5" opacity="0.35">
    <rect x="4" y="4" width="692" height="1192" rx="40"/>
  </g>
</svg>
